<svg width="512" height="512" viewBox="0 0 512 512" fill="none" xmlns="http://www.w3.org/2000/svg">
  <rect width="512" height="512" rx="120" fill="#ff8c00"/>
  <path d="M336 216H296V176C296 158.327 281.673 144 264 144H248C230.327 144 216 158.327 216 176V216H176C158.327 216 144 230.327 144 248V264C144 281.673 158.327 296 176 296H216V336C216 353.673 230.327 368 248 368H264C281.673 368 296 353.673 296 336V296H336C353.673 296 368 281.673 368 264V248C368 230.327 353.673 216 336 216Z" fill="white"/>
</svg>
