<svg width="512" height="512" viewBox="0 0 512 512" fill="none" xmlns="http://www.w3.org/2000/svg">
  <rect width="512" height="512" rx="128" fill="#ff8c00"/>
  <path d="M320 224H288V192C288 174.327 273.673 160 256 160C238.327 160 224 174.327 224 192V224H192C174.327 224 160 238.327 160 256C160 273.673 174.327 288 192 288H224V320C224 337.673 238.327 352 256 352C273.673 352 288 337.673 288 320V288H320C337.673 288 352 273.673 352 256C352 238.327 337.673 224 320 224Z" stroke="white" stroke-width="64" stroke-linecap="round" stroke-linejoin="round"/>
</svg>
